<mxfile host="app.diagrams.net" modified="2023-07-17T06:39:42.291Z" agent="Mozilla/5.0 (Windows NT 10.0; Win64; x64) AppleWebKit/537.36 (KHTML, like Gecko) Chrome/114.0.0.0 Safari/537.36" etag="TwghwAJ_4gHf-uMtrB-Q" version="21.6.2" type="github">
  <diagram name="Страница 1" id="cDgyHgMWFeY4kz7likKo">
    <mxGraphModel dx="1050" dy="549" grid="1" gridSize="10" guides="1" tooltips="1" connect="1" arrows="1" fold="1" page="1" pageScale="1" pageWidth="827" pageHeight="1169" math="0" shadow="0">
      <root>
        <mxCell id="0" />
        <mxCell id="1" parent="0" />
        <mxCell id="d-FDfhOjwPeXp1JPmuEf-3" style="edgeStyle=orthogonalEdgeStyle;rounded=0;orthogonalLoop=1;jettySize=auto;html=1;entryX=0.5;entryY=0;entryDx=0;entryDy=0;" edge="1" parent="1" source="d-FDfhOjwPeXp1JPmuEf-1" target="d-FDfhOjwPeXp1JPmuEf-2">
          <mxGeometry relative="1" as="geometry" />
        </mxCell>
        <mxCell id="d-FDfhOjwPeXp1JPmuEf-1" value="Начало" style="rounded=1;whiteSpace=wrap;html=1;arcSize=15;" vertex="1" parent="1">
          <mxGeometry x="320" y="130" width="120" height="60" as="geometry" />
        </mxCell>
        <mxCell id="d-FDfhOjwPeXp1JPmuEf-6" style="edgeStyle=orthogonalEdgeStyle;rounded=0;orthogonalLoop=1;jettySize=auto;html=1;entryX=0.5;entryY=0;entryDx=0;entryDy=0;" edge="1" parent="1" source="d-FDfhOjwPeXp1JPmuEf-2" target="d-FDfhOjwPeXp1JPmuEf-5">
          <mxGeometry relative="1" as="geometry" />
        </mxCell>
        <mxCell id="d-FDfhOjwPeXp1JPmuEf-2" value="Вводим&lt;br&gt;X, Y" style="shape=parallelogram;perimeter=parallelogramPerimeter;whiteSpace=wrap;html=1;fixedSize=1;" vertex="1" parent="1">
          <mxGeometry x="320" y="270" width="120" height="60" as="geometry" />
        </mxCell>
        <mxCell id="d-FDfhOjwPeXp1JPmuEf-4" value="&lt;font style=&quot;font-size: 14px;&quot;&gt;Составить блок-схему нахождения максимального значения из двух чисел&lt;/font&gt;" style="text;strokeColor=none;align=left;fillColor=none;html=1;verticalAlign=middle;whiteSpace=wrap;rounded=0;" vertex="1" parent="1">
          <mxGeometry y="10" width="300" height="100" as="geometry" />
        </mxCell>
        <mxCell id="d-FDfhOjwPeXp1JPmuEf-9" style="edgeStyle=orthogonalEdgeStyle;rounded=0;orthogonalLoop=1;jettySize=auto;html=1;entryX=0;entryY=0.5;entryDx=0;entryDy=0;" edge="1" parent="1" source="d-FDfhOjwPeXp1JPmuEf-5" target="d-FDfhOjwPeXp1JPmuEf-7">
          <mxGeometry relative="1" as="geometry" />
        </mxCell>
        <mxCell id="d-FDfhOjwPeXp1JPmuEf-10" value="Да" style="edgeLabel;html=1;align=center;verticalAlign=middle;resizable=0;points=[];" vertex="1" connectable="0" parent="d-FDfhOjwPeXp1JPmuEf-9">
          <mxGeometry x="-0.28" relative="1" as="geometry">
            <mxPoint as="offset" />
          </mxGeometry>
        </mxCell>
        <mxCell id="d-FDfhOjwPeXp1JPmuEf-11" style="edgeStyle=orthogonalEdgeStyle;rounded=0;orthogonalLoop=1;jettySize=auto;html=1;entryX=1;entryY=0.5;entryDx=0;entryDy=0;" edge="1" parent="1" source="d-FDfhOjwPeXp1JPmuEf-5" target="d-FDfhOjwPeXp1JPmuEf-8">
          <mxGeometry relative="1" as="geometry" />
        </mxCell>
        <mxCell id="d-FDfhOjwPeXp1JPmuEf-12" value="Нет" style="edgeLabel;html=1;align=center;verticalAlign=middle;resizable=0;points=[];" vertex="1" connectable="0" parent="d-FDfhOjwPeXp1JPmuEf-11">
          <mxGeometry x="0.044" y="-1" relative="1" as="geometry">
            <mxPoint as="offset" />
          </mxGeometry>
        </mxCell>
        <mxCell id="d-FDfhOjwPeXp1JPmuEf-5" value="X&amp;gt;Y" style="rhombus;whiteSpace=wrap;html=1;" vertex="1" parent="1">
          <mxGeometry x="340" y="400" width="80" height="80" as="geometry" />
        </mxCell>
        <mxCell id="d-FDfhOjwPeXp1JPmuEf-15" style="edgeStyle=orthogonalEdgeStyle;rounded=0;orthogonalLoop=1;jettySize=auto;html=1;" edge="1" parent="1" source="d-FDfhOjwPeXp1JPmuEf-7" target="d-FDfhOjwPeXp1JPmuEf-13">
          <mxGeometry relative="1" as="geometry">
            <Array as="points">
              <mxPoint x="560" y="520" />
              <mxPoint x="380" y="520" />
            </Array>
          </mxGeometry>
        </mxCell>
        <mxCell id="d-FDfhOjwPeXp1JPmuEf-7" value="Max = X" style="rounded=0;whiteSpace=wrap;html=1;" vertex="1" parent="1">
          <mxGeometry x="500" y="410" width="120" height="60" as="geometry" />
        </mxCell>
        <mxCell id="d-FDfhOjwPeXp1JPmuEf-14" style="edgeStyle=orthogonalEdgeStyle;rounded=0;orthogonalLoop=1;jettySize=auto;html=1;exitX=0.5;exitY=1;exitDx=0;exitDy=0;" edge="1" parent="1" source="d-FDfhOjwPeXp1JPmuEf-8">
          <mxGeometry relative="1" as="geometry">
            <mxPoint x="380" y="570" as="targetPoint" />
          </mxGeometry>
        </mxCell>
        <mxCell id="d-FDfhOjwPeXp1JPmuEf-8" value="Max = Y" style="rounded=0;whiteSpace=wrap;html=1;" vertex="1" parent="1">
          <mxGeometry x="120" y="410" width="120" height="60" as="geometry" />
        </mxCell>
        <mxCell id="d-FDfhOjwPeXp1JPmuEf-17" style="edgeStyle=orthogonalEdgeStyle;rounded=0;orthogonalLoop=1;jettySize=auto;html=1;entryX=0.5;entryY=0;entryDx=0;entryDy=0;" edge="1" parent="1" source="d-FDfhOjwPeXp1JPmuEf-13" target="d-FDfhOjwPeXp1JPmuEf-16">
          <mxGeometry relative="1" as="geometry" />
        </mxCell>
        <mxCell id="d-FDfhOjwPeXp1JPmuEf-13" value="Вывод Max" style="shape=document;whiteSpace=wrap;html=1;boundedLbl=1;" vertex="1" parent="1">
          <mxGeometry x="320" y="570" width="120" height="80" as="geometry" />
        </mxCell>
        <mxCell id="d-FDfhOjwPeXp1JPmuEf-16" value="Конец" style="ellipse;whiteSpace=wrap;html=1;" vertex="1" parent="1">
          <mxGeometry x="320" y="720" width="120" height="80" as="geometry" />
        </mxCell>
        <mxCell id="d-FDfhOjwPeXp1JPmuEf-18" value="&lt;font style=&quot;font-size: 14px;&quot;&gt;Составить блок-схему нахождения суммы всех чётных чисел от 1 до 15&lt;/font&gt;" style="text;strokeColor=none;align=left;fillColor=none;html=1;verticalAlign=middle;whiteSpace=wrap;rounded=0;" vertex="1" parent="1">
          <mxGeometry y="830" width="270" height="70" as="geometry" />
        </mxCell>
        <mxCell id="d-FDfhOjwPeXp1JPmuEf-33" style="edgeStyle=orthogonalEdgeStyle;rounded=0;orthogonalLoop=1;jettySize=auto;html=1;entryX=0.5;entryY=0;entryDx=0;entryDy=0;" edge="1" parent="1" source="d-FDfhOjwPeXp1JPmuEf-19" target="d-FDfhOjwPeXp1JPmuEf-20">
          <mxGeometry relative="1" as="geometry" />
        </mxCell>
        <mxCell id="d-FDfhOjwPeXp1JPmuEf-19" value="Start" style="rounded=1;whiteSpace=wrap;html=1;" vertex="1" parent="1">
          <mxGeometry x="330" y="840" width="120" height="60" as="geometry" />
        </mxCell>
        <mxCell id="d-FDfhOjwPeXp1JPmuEf-31" style="edgeStyle=orthogonalEdgeStyle;rounded=0;orthogonalLoop=1;jettySize=auto;html=1;entryX=0.5;entryY=0;entryDx=0;entryDy=0;" edge="1" parent="1" source="d-FDfhOjwPeXp1JPmuEf-20" target="d-FDfhOjwPeXp1JPmuEf-21">
          <mxGeometry relative="1" as="geometry" />
        </mxCell>
        <mxCell id="d-FDfhOjwPeXp1JPmuEf-20" value="i= 1&lt;br&gt;sum=0" style="rounded=0;whiteSpace=wrap;html=1;" vertex="1" parent="1">
          <mxGeometry x="330" y="960" width="120" height="60" as="geometry" />
        </mxCell>
        <mxCell id="d-FDfhOjwPeXp1JPmuEf-32" style="edgeStyle=orthogonalEdgeStyle;rounded=0;orthogonalLoop=1;jettySize=auto;html=1;entryX=0.5;entryY=0;entryDx=0;entryDy=0;" edge="1" parent="1" source="d-FDfhOjwPeXp1JPmuEf-21" target="d-FDfhOjwPeXp1JPmuEf-22">
          <mxGeometry relative="1" as="geometry" />
        </mxCell>
        <mxCell id="d-FDfhOjwPeXp1JPmuEf-39" value="Yes" style="edgeLabel;html=1;align=center;verticalAlign=middle;resizable=0;points=[];" vertex="1" connectable="0" parent="d-FDfhOjwPeXp1JPmuEf-32">
          <mxGeometry x="-0.2" y="1" relative="1" as="geometry">
            <mxPoint as="offset" />
          </mxGeometry>
        </mxCell>
        <mxCell id="d-FDfhOjwPeXp1JPmuEf-35" style="edgeStyle=orthogonalEdgeStyle;rounded=0;orthogonalLoop=1;jettySize=auto;html=1;entryX=0;entryY=0.5;entryDx=0;entryDy=0;" edge="1" parent="1" source="d-FDfhOjwPeXp1JPmuEf-21" target="d-FDfhOjwPeXp1JPmuEf-34">
          <mxGeometry relative="1" as="geometry" />
        </mxCell>
        <mxCell id="d-FDfhOjwPeXp1JPmuEf-38" value="No" style="edgeLabel;html=1;align=center;verticalAlign=middle;resizable=0;points=[];" vertex="1" connectable="0" parent="d-FDfhOjwPeXp1JPmuEf-35">
          <mxGeometry x="-0.062" y="1" relative="1" as="geometry">
            <mxPoint as="offset" />
          </mxGeometry>
        </mxCell>
        <mxCell id="d-FDfhOjwPeXp1JPmuEf-21" value="i&amp;lt;15" style="rhombus;whiteSpace=wrap;html=1;" vertex="1" parent="1">
          <mxGeometry x="350" y="1070" width="80" height="80" as="geometry" />
        </mxCell>
        <mxCell id="d-FDfhOjwPeXp1JPmuEf-25" style="edgeStyle=orthogonalEdgeStyle;rounded=0;orthogonalLoop=1;jettySize=auto;html=1;" edge="1" parent="1" source="d-FDfhOjwPeXp1JPmuEf-22" target="d-FDfhOjwPeXp1JPmuEf-23">
          <mxGeometry relative="1" as="geometry" />
        </mxCell>
        <mxCell id="d-FDfhOjwPeXp1JPmuEf-27" style="edgeStyle=orthogonalEdgeStyle;rounded=0;orthogonalLoop=1;jettySize=auto;html=1;entryX=0.5;entryY=0;entryDx=0;entryDy=0;" edge="1" parent="1" source="d-FDfhOjwPeXp1JPmuEf-22" target="d-FDfhOjwPeXp1JPmuEf-24">
          <mxGeometry relative="1" as="geometry" />
        </mxCell>
        <mxCell id="d-FDfhOjwPeXp1JPmuEf-28" value="No" style="edgeLabel;html=1;align=center;verticalAlign=middle;resizable=0;points=[];" vertex="1" connectable="0" parent="d-FDfhOjwPeXp1JPmuEf-27">
          <mxGeometry x="-0.0457" y="5" relative="1" as="geometry">
            <mxPoint as="offset" />
          </mxGeometry>
        </mxCell>
        <mxCell id="d-FDfhOjwPeXp1JPmuEf-22" value="i-even" style="rhombus;whiteSpace=wrap;html=1;" vertex="1" parent="1">
          <mxGeometry x="350" y="1190" width="80" height="80" as="geometry" />
        </mxCell>
        <mxCell id="d-FDfhOjwPeXp1JPmuEf-29" style="edgeStyle=orthogonalEdgeStyle;rounded=0;orthogonalLoop=1;jettySize=auto;html=1;entryX=1;entryY=0.25;entryDx=0;entryDy=0;" edge="1" parent="1" target="d-FDfhOjwPeXp1JPmuEf-24">
          <mxGeometry relative="1" as="geometry">
            <mxPoint x="553.44" y="1230" as="sourcePoint" />
            <mxPoint x="485" y="1363" as="targetPoint" />
            <Array as="points">
              <mxPoint x="553" y="1231" />
              <mxPoint x="530" y="1231" />
              <mxPoint x="530" y="1355" />
            </Array>
          </mxGeometry>
        </mxCell>
        <mxCell id="d-FDfhOjwPeXp1JPmuEf-23" value="sum=sum+i" style="rounded=0;whiteSpace=wrap;html=1;" vertex="1" parent="1">
          <mxGeometry x="520" y="1200" width="120" height="60" as="geometry" />
        </mxCell>
        <mxCell id="d-FDfhOjwPeXp1JPmuEf-30" style="edgeStyle=orthogonalEdgeStyle;rounded=0;orthogonalLoop=1;jettySize=auto;html=1;entryX=0;entryY=0.5;entryDx=0;entryDy=0;" edge="1" parent="1" source="d-FDfhOjwPeXp1JPmuEf-24" target="d-FDfhOjwPeXp1JPmuEf-21">
          <mxGeometry relative="1" as="geometry">
            <Array as="points">
              <mxPoint x="230" y="1370" />
              <mxPoint x="230" y="1110" />
            </Array>
          </mxGeometry>
        </mxCell>
        <mxCell id="d-FDfhOjwPeXp1JPmuEf-24" value="i=i+1" style="rounded=0;whiteSpace=wrap;html=1;" vertex="1" parent="1">
          <mxGeometry x="330" y="1340" width="120" height="60" as="geometry" />
        </mxCell>
        <mxCell id="d-FDfhOjwPeXp1JPmuEf-26" value="Yes" style="text;html=1;align=center;verticalAlign=middle;resizable=0;points=[];autosize=1;strokeColor=none;fillColor=none;" vertex="1" parent="1">
          <mxGeometry x="445" y="1210" width="40" height="30" as="geometry" />
        </mxCell>
        <mxCell id="d-FDfhOjwPeXp1JPmuEf-37" style="edgeStyle=orthogonalEdgeStyle;rounded=0;orthogonalLoop=1;jettySize=auto;html=1;" edge="1" parent="1" source="d-FDfhOjwPeXp1JPmuEf-34" target="d-FDfhOjwPeXp1JPmuEf-36">
          <mxGeometry relative="1" as="geometry" />
        </mxCell>
        <mxCell id="d-FDfhOjwPeXp1JPmuEf-34" value="Print sum" style="shape=document;whiteSpace=wrap;html=1;boundedLbl=1;size=0.375;" vertex="1" parent="1">
          <mxGeometry x="630" y="1070" width="120" height="80" as="geometry" />
        </mxCell>
        <mxCell id="d-FDfhOjwPeXp1JPmuEf-36" value="End" style="ellipse;whiteSpace=wrap;html=1;" vertex="1" parent="1">
          <mxGeometry x="680" y="1190" width="120" height="80" as="geometry" />
        </mxCell>
      </root>
    </mxGraphModel>
  </diagram>
</mxfile>
